<svg xmlns="http://www.w3.org/2000/svg" xmlns:xlink="http://www.w3.org/1999/xlink" width="172.131" height="91.65" viewBox="0 0 172.131 91.65">
  <defs>
    <filter id="Path_176" x="78.699" y="0" width="93.431" height="78.074" filterUnits="userSpaceOnUse">
      <feOffset dy="3" input="SourceAlpha"/>
      <feGaussianBlur stdDeviation="3" result="blur"/>
      <feFlood flood-opacity="0.161"/>
      <feComposite operator="in" in2="blur"/>
      <feComposite in="SourceGraphic"/>
    </filter>
    <filter id="Path_177" x="0" y="7.391" width="105.981" height="84.259" filterUnits="userSpaceOnUse">
      <feOffset dy="3" input="SourceAlpha"/>
      <feGaussianBlur stdDeviation="3" result="blur-2"/>
      <feFlood flood-opacity="0.161"/>
      <feComposite operator="in" in2="blur-2"/>
      <feComposite in="SourceGraphic"/>
    </filter>
  </defs>
  <g id="d-sign" transform="translate(9 6)">
    <g transform="matrix(1, 0, 0, 1, -9, -6)" filter="url(#Path_176)">
      <path id="Path_176-2" data-name="Path 176" d="M380.566,41.108c-.9-.105-1.767-.237-2.664-.316a4.046,4.046,0,0,0-1.371.132c-1.45.5-2.9,1.055-4.378,1.609-1.609.607-3.217,1.239-4.879,1.82a3.233,3.233,0,0,1-2.8-.185,2.441,2.441,0,0,1-.791-.765c-.211-.316-.422-.343-.765-.185-.712.316-1.424.58-2.11.923-2.136,1.081-4.272,2.189-6.461,3.27a6.326,6.326,0,0,1-2.743.87,2.389,2.389,0,0,1-1.714-.527,1.585,1.585,0,0,1-.079-2.031c.87-1.081,1.793-2.136,2.664-3.191a1.09,1.09,0,0,0,.185-.29,1.752,1.752,0,0,0-.4.079c-1.872,1.134-3.771,2.294-5.643,3.481-1.5.949-2.954,1.978-4.43,3.006-2.505,1.741-5.037,3.507-7.621,5.274-1.925,1.319-3.877,2.69-5.907,3.982-1.53.976-3.112,1.925-4.773,2.769a11.941,11.941,0,0,1-5.09,1.556c-2.136.079-3.376-.659-3.771-2.189a4.541,4.541,0,0,1,.29-2.743c.105-.29.185-.554.264-.844.026-.105,0-.211.026-.316a1.524,1.524,0,0,0-.369.132c-.527.316-1.055.712-1.609,1a45.279,45.279,0,0,1-4.14,1.9c-1.239.448-2.242-.237-2.057-1.213a.984.984,0,0,1,.607-.738c1.319-.633,2.664-1.239,3.929-1.978,1.371-.791,2.663-1.661,3.956-2.532.976-.633,1.951-1.292,2.9-1.978a2.933,2.933,0,0,0,.686-.712c.607-.844,1.134-1.741,1.767-2.558,1.319-1.661,2.664-3.3,3.982-4.905.9-1.081,1.767-2.162,2.69-3.191,1.028-1.134,2.11-2.242,3.165-3.349.765-.791,1.5-1.609,2.268-2.4.976-1.028,1.951-2.057,2.954-3.033,1.793-1.741,3.56-3.481,5.353-5.169.712-.659,1.424-1.319,2.162-1.951,2.242-1.9,4.43-3.824,6.672-5.617,1.951-1.556,3.982-2.98,5.96-4.4,1.951-1.371,3.929-2.69,5.881-3.982.844-.554,1.767-1.028,2.637-1.53.185-.105.369-.264.554-.369.9-.5,1.767-1,2.637-1.45A60.51,60.51,0,0,1,374.263,3.4c.976-.369,1.951-.738,2.927-1.028a5.957,5.957,0,0,1,1.371,0,1.623,1.623,0,0,1,.5.053,1.8,1.8,0,0,1,1.134,1.53,3.345,3.345,0,0,1-.554,1.925,16.619,16.619,0,0,1-2.927,3.9c-1.477,1.53-2.98,3.059-4.562,4.536-1.53,1.4-3.165,2.743-4.826,4.088-1.978,1.582-4.008,3.138-6.065,4.72-1.424,1.081-2.9,2.136-4.351,3.217-1.292.949-2.584,1.925-3.9,2.874-.791.58-1.635,1.108-2.426,1.688-.844.607-1.688,1.239-2.558,1.872-1.16.844-2.373,1.688-3.56,2.558-1.028.765-2.057,1.556-3.112,2.347-1.16.87-2.347,1.714-3.534,2.584-1.82,1.319-3.666,2.69-5.512,4.035-2,1.477-4.035,2.954-6.118,4.457-1.556,1.134-3.165,2.268-4.747,3.428a2.174,2.174,0,0,0-.527.686c-.686,1.213-1.4,2.4-1.978,3.639a14.286,14.286,0,0,0-.87,2.663c-.158.633.132.844.9.791a6.9,6.9,0,0,0,2.769-.844c1.477-.738,2.927-1.5,4.325-2.347,1.345-.791,2.584-1.688,3.877-2.532.844-.554,1.714-1.108,2.558-1.688,1.213-.818,2.426-1.635,3.639-2.479,1.688-1.16,3.349-2.373,5.037-3.507,1.556-1.055,3.138-2.083,4.694-3.085,1.028-.659,2.057-1.345,3.112-1.951a44.3,44.3,0,0,1,6.171-3.217,4.046,4.046,0,0,1,2.083-.264c.475.079.633.448.791.818a1.086,1.086,0,0,1-.105.976,18.388,18.388,0,0,1-3.217,3.982c-.264.264-.5.527-.765.791a1.917,1.917,0,0,0-.132.237c.106-.026.185-.026.29-.053.949-.475,1.846-.976,2.8-1.4a42.626,42.626,0,0,1,5.67-2.426,3.07,3.07,0,0,1,2,0,1.582,1.582,0,0,1,1,1.081c.079.29.237.29.5.237a25.6,25.6,0,0,0,4.826-1.714,41.557,41.557,0,0,1,4.773-1.741,6.525,6.525,0,0,1,3.112.079c1.081.211,2.189.29,3.27.448a1.037,1.037,0,0,1,.712.29c.237.343,0,.659-.475.923a3.5,3.5,0,0,1-1.688.369A.575.575,0,0,1,380.566,41.108ZM378.061,3.846c-.105,0-.185.026-.29.026a11.336,11.336,0,0,0-3.824,1.187q-2.413,1.147-4.826,2.453c-1.266.686-2.532,1.4-3.745,2.189-1.53.976-3.059,2-4.562,3.033-1.187.818-2.373,1.635-3.534,2.532-2.136,1.635-4.325,3.323-6.461,5.063-1.661,1.345-3.323,2.743-4.905,4.219-2.347,2.162-4.641,4.4-6.962,6.7-1.741,1.741-3.428,3.586-5.142,5.432-1.5,1.635-3.006,3.3-4.483,5.011-1.134,1.319-2.242,2.69-3.349,4.061-.053.079-.105.185-.158.264.105-.053.237-.079.316-.132,1.055-.738,2.083-1.477,3.112-2.215,1.371-.976,2.716-1.978,4.061-2.927,1.951-1.4,3.877-2.743,5.775-4.088,1.424-1,2.822-2,4.219-2.98.923-.633,1.872-1.266,2.8-1.9.607-.4,1.213-.765,1.82-1.16.817-.554,1.635-1.134,2.453-1.714.949-.659,1.872-1.319,2.8-1.978,1.187-.844,2.373-1.661,3.534-2.505,1.371-1,2.716-2.031,4.061-3.059.923-.686,1.846-1.4,2.769-2.083.818-.633,1.609-1.292,2.426-1.925.659-.527,1.345-1.055,1.978-1.609,1.266-1.134,2.532-2.268,3.745-3.428.87-.818,1.74-1.609,2.532-2.479,1-1.108,1.925-2.294,2.9-3.428a6.209,6.209,0,0,0,1.266-2.215C378.4,3.9,378.3,3.846,378.061,3.846Z" transform="translate(-219.72 3.68)"/>
    </g>
    <g id="Group_33" data-name="Group 33" transform="translate(0 7.391)">
      <g transform="matrix(1, 0, 0, 1, -9, -13.39)" filter="url(#Path_177)">
        <path id="Path_177-2" data-name="Path 177" d="M78.48,31.814a61.844,61.844,0,0,0-11.1.923c-2,.343-4.061.738-6.092,1.239-3.507.87-6.988,1.951-10.5,3.165A101.8,101.8,0,0,0,40.4,41.492a93.83,93.83,0,0,0-11.973,6.857,55.49,55.49,0,0,0-5.063,4.008,31.29,31.29,0,0,0-3.9,4.061,9.647,9.647,0,0,0-2.031,4.325A1.887,1.887,0,0,1,16.086,62.3c-1,.369-2.769.29-2.558-.659a14.616,14.616,0,0,1,1.16-3.428A18.762,18.762,0,0,1,17.009,54.7a30.631,30.631,0,0,1,3.824-3.8,46.869,46.869,0,0,1,5.723-4.167c1.134-.659,2.11-1.424,3.217-2.057,1.951-1.134,3.9-2.215,5.907-3.244,1.767-.9,3.639-1.714,5.459-2.505.738-.316,1.556-.554,2.294-.844.607-.237,1.16-.554,1.741-.791a96.327,96.327,0,0,1,11.392-3.824c1.556-.422,3.112-.791,4.668-1.187a56.708,56.708,0,0,1,7.094-1.319c1.846-.237,3.666-.448,5.485-.554,1.609-.105,3.191-.053,4.773-.053a34.779,34.779,0,0,1,8.281.949,17.037,17.037,0,0,1,5.169,2,9.884,9.884,0,0,1,2.743,2.453,16.477,16.477,0,0,1,1.53,2.373,8.383,8.383,0,0,1,.659,3.8,12.605,12.605,0,0,1-1.055,4.589,22.593,22.593,0,0,1-5.38,7.437c-1.16,1.108-2.268,2.268-3.534,3.323q-2.532,2.1-5.3,4.114c-2.031,1.477-4.14,2.874-6.276,4.325-.87.58-1.793,1.134-2.716,1.688-.316.185-.369.316-.237.527.659,1.028.316,2.215-.29,3.455a4.777,4.777,0,0,0-.237.818,6.7,6.7,0,0,0,.976-.264c1.319-.554,2.637-1.134,3.956-1.688,1.635-.712,3.244-1.45,4.879-2.11a6.113,6.113,0,0,1,1.978-.448c.87,0,1.635.211,1.82.949s.211.738,1.292.475c.87-.211,1.741-.448,2.611-.659.343-.079.686-.079,1.055-.132a2.574,2.574,0,0,0,.607-.158,4.735,4.735,0,0,1,2.136-.844,5.286,5.286,0,0,0,1.319-.527c.923-.369,1.371-.369,1.661.29.132.29.026.607-.343.87s-.765.475-1.16.712c-.079.053-.158.132-.237.185.079.026.158.026.237.053.369.026.738.053,1.108.105.475.079.422.448.343.765-.053.369-.422.554-.791.712a4.692,4.692,0,0,0-.791.448A4.065,4.065,0,0,1,92.8,71.5a2.754,2.754,0,0,1-2.189-.369c-.185-.158-.607-.132-.87-.237a1.444,1.444,0,0,1-.527-.29c-.158-.132-.29-.158-.607-.053a16.853,16.853,0,0,1-2.4.765c-1.582.29-2.611-.158-3.085-1.16-.105-.264-.316-.237-.633-.132a29.342,29.342,0,0,0-4.509,1.925c-1.609.791-3.244,1.582-4.905,2.347-1.609.712-3.56.5-4.167-.369a2.439,2.439,0,0,1,.185-2.453c.29-.607.475-1.187.712-1.793.026-.079-.026-.185-.053-.264a2.745,2.745,0,0,0-.422.158c-2.69,1.582-5.38,3.244-8.175,4.826-2.69,1.556-5.459,3.059-8.254,4.589-2.347,1.292-4.72,2.611-7.147,3.9C43.8,83.95,41.8,84.978,39.767,86.007c-2.848,1.45-5.723,2.927-8.676,4.325a95.354,95.354,0,0,1-12.922,5.09,21.582,21.582,0,0,1-6.25,1.187A5.45,5.45,0,0,1,9.6,96.186a1.088,1.088,0,0,1-.4-1.635c.343-.554.475-1.108.791-1.635a13.823,13.823,0,0,1,2.927-3.059A57.758,57.758,0,0,1,19.857,84.9c2.031-1.292,4.219-2.426,6.355-3.613,1.477-.818,2.954-1.635,4.483-2.347,2.848-1.345,5.67-2.664,8.518-3.877,2.242-.949,4.536-1.741,6.777-2.558,1.793-.659,3.586-1.266,5.38-1.846A69.614,69.614,0,0,1,59.044,68.5c1.292-.264,2.584-.633,3.877-.9a30.653,30.653,0,0,1,6.092-.633,1.13,1.13,0,0,0,.422-.132c2.031-1.266,4.061-2.505,6.013-3.771,1.925-1.266,3.8-2.584,5.617-3.877,1.187-.844,2.347-1.688,3.428-2.584,1.16-.949,2.321-1.951,3.349-2.954a30.031,30.031,0,0,0,4.325-4.958,23.137,23.137,0,0,0,1.661-3.059,8.927,8.927,0,0,0,.105-7.727,7.731,7.731,0,0,0-3.3-3.27,23.081,23.081,0,0,0-9.784-2.453L79.614,32.1A1.83,1.83,0,0,0,78.48,31.814ZM14.451,93.76a1.837,1.837,0,0,0,.5-.105c2.083-.633,4.167-1.108,6.145-1.9,2.848-1.108,5.723-2.136,8.412-3.481,1.793-.9,3.639-1.688,5.406-2.532,1.371-.659,2.663-1.371,4.008-2.057.369-.185.738-.4,1.108-.607,1.4-.712,2.8-1.4,4.167-2.11.923-.475,1.793-1,2.69-1.477,1.767-.949,3.56-1.9,5.3-2.848,1.266-.686,2.505-1.4,3.771-2.083.316-.158.686-.237.976-.422.659-.4,1.266-.818,1.9-1.213,2-1.16,4.008-2.321,5.96-3.455.079-.053.132-.132.211-.185a1.122,1.122,0,0,0-.29-.053c-.316.026-.607.079-.923.132A72.392,72.392,0,0,0,55.3,71.45c-3.745,1.081-7.489,2.453-11.261,3.929A134.224,134.224,0,0,0,27,83.343a76.449,76.449,0,0,0-9.467,6.118,20.293,20.293,0,0,0-3.85,3.613C13.211,93.786,13.29,93.865,14.451,93.76Z" transform="translate(0.01 -16.96)"/>
      </g>
      <path id="Path_178" data-name="Path 178" d="M46.042,137.259c-.633,1.714-1.266,3.455-1.872,5.2-.738,2.083-1.424,4.193-2.242,6.3-.949,2.4-2.057,4.826-3.059,7.278-.343.844-.58,1.688-.87,2.532-.079.211-.105.4-.185.607a1.537,1.537,0,0,1-1.5.949c-1.239.132-1.635-.079-1.741-.87-.237-1.582.475-3.27,1.239-4.958q.514-1.108.949-2.215c.738-1.74,1.5-3.507,2.162-5.222.9-2.453,1.688-4.905,2.532-7.331.343-.949.607-1.9,1.028-2.848a3.755,3.755,0,0,1,.949-1.134,2,2,0,0,1,.791-.237c1.239-.185,2.162.422,1.925,1.239-.079.264-.185.5-.29.765A.284.284,0,0,1,46.042,137.259Z" transform="translate(-27.79 -107.604)"/>
    </g>
  </g>
</svg>
